<?xml version="1.0" encoding="UTF-8" standalone="no"?>
<svg
   xmlns:dc="http://purl.org/dc/elements/1.1/"
   xmlns:cc="http://creativecommons.org/ns#"
   xmlns:rdf="http://www.w3.org/1999/02/22-rdf-syntax-ns#"
   xmlns:svg="http://www.w3.org/2000/svg"
   xmlns="http://www.w3.org/2000/svg"
   xmlns:sodipodi="http://sodipodi.sourceforge.net/DTD/sodipodi-0.dtd"
   xmlns:inkscape="http://www.inkscape.org/namespaces/inkscape"
   version="1.1"
   id="Layer_2"
   x="0px"
   y="0px"
   viewBox="0 0 700 700"
   xml:space="preserve"
   sodipodi:docname="microsoft-edge-logo-2022.svg"
   inkscape:export-filename="C:\Users\suitedoalex\sites\microsoft-edge-logo-0.png"
   inkscape:export-xdpi="1536"
   inkscape:export-ydpi="1536"
   inkscape:version="0.92.4 (5da689c313, 2019-01-14)"
   width="700"
   height="700"><metadata
     id="metadata67"><rdf:RDF><cc:Work
         rdf:about=""><dc:format>image/svg+xml</dc:format><dc:type
           rdf:resource="http://purl.org/dc/dcmitype/StillImage" /><dc:title></dc:title></cc:Work></rdf:RDF></metadata><defs
     id="defs65" /><sodipodi:namedview
     pagecolor="#ffffff"
     bordercolor="#666666"
     borderopacity="1"
     objecttolerance="10"
     gridtolerance="10"
     guidetolerance="10"
     inkscape:pageopacity="0"
     inkscape:pageshadow="2"
     inkscape:window-width="1600"
     inkscape:window-height="837"
     id="namedview63"
     showgrid="false"
     inkscape:zoom="0.4609375"
     inkscape:cx="-56.228576"
     inkscape:cy="293.16459"
     inkscape:window-x="-8"
     inkscape:window-y="-8"
     inkscape:window-maximized="1"
     inkscape:current-layer="Layer_2" /><style
     type="text/css"
     id="style2">
	.st0{fill:url(#SVGID_1_);}
	.st1{opacity:0.35;fill:url(#SVGID_2_);}
	.st2{fill:url(#SVGID_3_);}
	.st3{opacity:0.41;fill:url(#SVGID_4_);}
	.st4{fill:url(#SVGID_5_);}
	.st5{fill:url(#SVGID_6_);}
</style><g
     id="g60"
     inkscape:export-filename="C:\Users\suitedoalex\sites\microsoft-edge-logo-4.png"
     inkscape:export-xdpi="150"
     inkscape:export-ydpi="150"
     transform="matrix(1.8305084,0,0,1.8305084,115.69492,115.69492)"><linearGradient
       id="SVGID_1_"
       gradientUnits="userSpaceOnUse"
       x1="58.703171"
       y1="177.0506"
       x2="237.03833"
       y2="177.0506"><stop
         offset="0"
         style="stop-color:#0C59A4"
         id="stop4" /><stop
         offset="1"
         style="stop-color:#114A8B"
         id="stop6" /></linearGradient><path
       class="st0"
       d="m 231.05063,190.53383 c -3.36511,1.7643 -6.88057,3.34212 -10.53322,4.71422 -10.9814,4.12509 -23.10857,6.46361 -35.89987,6.46361 -47.32103,0 -88.54315,-32.55214 -88.54315,-74.32233 0,-11.74553 6.79524,-21.9262 16.42522,-27.28892 -42.79503,1.79418 -53.79643,46.40015 -53.79643,72.5307 0,73.87267 68.08929,81.36969 82.76053,81.36969 7.90663,0 19.84055,-2.30283 27.03084,-4.55843 0.43819,-0.1458 0.8745,-0.29285 1.31079,-0.44318 27.75917,-9.57338 51.18808,-28.407 66.58849,-52.81979 2.20839,-3.50157 -1.67555,-7.56864 -5.3432,-5.64557 z"
       id="path9"
       inkscape:connector-curvature="0"
       style="fill:url(#SVGID_1_)" /><radialGradient
       id="SVGID_2_"
       cx="157.20409"
       cy="178.38393"
       r="95.383972"
       gradientTransform="matrix(1,0,0,0.95107,0,8.72752)"
       gradientUnits="userSpaceOnUse"><stop
         offset="0.71659"
         style="stop-color:#000000;stop-opacity:0"
         id="stop11" /><stop
         offset="0.9459"
         style="stop-color:#000000;stop-opacity:0.53"
         id="stop13" /><stop
         offset="1"
         style="stop-color:#000000"
         id="stop15" /></radialGradient><path
       class="st1"
       d="m 231.05063,190.53383 c -3.36511,1.7643 -6.88057,3.34212 -10.53322,4.71422 -10.9814,4.12509 -23.10857,6.46361 -35.89987,6.46361 -47.32103,0 -88.54315,-32.55214 -88.54315,-74.32233 0,-11.74553 6.79524,-21.9262 16.42522,-27.28892 -42.79503,1.79418 -53.79643,46.40015 -53.79643,72.5307 0,73.87267 68.08929,81.36969 82.76053,81.36969 7.90663,0 19.84055,-2.30283 27.03084,-4.55843 0.43819,-0.1458 0.8745,-0.29285 1.31079,-0.44318 27.75917,-9.57338 51.18808,-28.407 66.58849,-52.81979 2.20839,-3.50157 -1.67555,-7.56864 -5.3432,-5.64557 z"
       id="path18"
       inkscape:connector-curvature="0"
       style="opacity:0.35;fill:url(#SVGID_2_)" /><linearGradient
       id="SVGID_3_"
       gradientUnits="userSpaceOnUse"
       x1="152.72325"
       y1="99.683792"
       x2="41.327961"
       y2="221.01947"><stop
         offset="0"
         style="stop-color:#1B9DE2"
         id="stop20" /><stop
         offset="0.16164"
         style="stop-color:#1595DF"
         id="stop22" /><stop
         offset="0.66749"
         style="stop-color:#0680D7"
         id="stop24" /><stop
         offset="1"
         style="stop-color:#0078D4"
         id="stop26" /></linearGradient><path
       class="st2"
       d="m 105.71111,241.41368 c -8.89436,-5.51344 -16.6154,-12.78334 -22.73532,-21.37531 -9.46996,-13.29582 -15.13148,-29.65065 -15.13148,-47.40726 0,-26.13057 12.16756,-49.27501 30.9232,-63.9391 4.25966,-3.33038 9.71381,-6.68943 13.73222,-8.59164 3.1206,-1.47721 8.45725,-4.1373 15.5456,-4.0368 11.7515,0.1666 20.63087,6.15771 25.68491,12.9623 3.88332,5.22806 6.27814,11.66906 6.35823,18.66107 0.003,-0.21021 24.46405,-79.60429 -80.04925,-79.60429 C 36.14627,48.08265 0,89.75206 0,126.29791 c 0,23.18193 5.37933,41.68987 12.11456,56.03313 15.00061,31.94922 42.81795,56.67767 76.84572,67.57275 12.32318,3.9457 25.4505,6.09621 39.08505,6.09621 14.14047,0 27.73074,-2.3259 40.44916,-6.55762 -7.19037,2.25562 -14.81308,3.48982 -22.7197,3.48982 -14.67112,1e-5 -28.34539,-4.25482 -40.06368,-11.51852 z"
       id="path29"
       inkscape:connector-curvature="0"
       style="fill:url(#SVGID_3_)" /><radialGradient
       id="SVGID_4_"
       cx="71.304077"
       cy="198.66367"
       r="143.23575"
       gradientTransform="matrix(0.14843,-0.98892,0.79688,0.1196,-97.5899,245.41753)"
       gradientUnits="userSpaceOnUse"><stop
         offset="0.76293"
         style="stop-color:#000000;stop-opacity:0"
         id="stop31" /><stop
         offset="0.9459"
         style="stop-color:#000000;stop-opacity:0.5"
         id="stop33" /><stop
         offset="1"
         style="stop-color:#000000"
         id="stop35" /></radialGradient><path
       class="st3"
       d="m 105.71111,241.41368 c -8.89436,-5.51344 -16.6154,-12.78334 -22.73532,-21.37531 -9.46996,-13.29582 -15.13148,-29.65065 -15.13148,-47.40726 0,-26.13057 12.16756,-49.27501 30.9232,-63.9391 4.25966,-3.33038 9.71381,-6.68943 13.73222,-8.59164 3.1206,-1.47721 8.45725,-4.1373 15.5456,-4.0368 11.7515,0.1666 20.63087,6.15771 25.68491,12.9623 3.88332,5.22806 6.27814,11.66906 6.35823,18.66107 0.003,-0.21021 24.46405,-79.60429 -80.04925,-79.60429 C 36.14627,48.08265 0,89.75206 0,126.29791 c 0,23.18193 5.37933,41.68987 12.11456,56.03313 15.00061,31.94922 42.81795,56.67767 76.84572,67.57275 12.32318,3.9457 25.4505,6.09621 39.08505,6.09621 14.14047,0 27.73074,-2.3259 40.44916,-6.55762 -7.19037,2.25562 -14.81308,3.48982 -22.7197,3.48982 -14.67112,1e-5 -28.34539,-4.25482 -40.06368,-11.51852 z"
       id="path38"
       inkscape:connector-curvature="0"
       style="opacity:0.41000001;fill:url(#SVGID_4_)" /><radialGradient
       id="SVGID_5_"
       cx="25.233761"
       cy="46.80529"
       r="202.43143"
       gradientTransform="matrix(-0.03715,0.99931,-2.12836,-0.07913,125.79001,25.29274)"
       gradientUnits="userSpaceOnUse"><stop
         offset="0"
         style="stop-color:#35C1F1"
         id="stop40" /><stop
         offset="0.11079"
         style="stop-color:#34C1ED"
         id="stop42" /><stop
         offset="0.23164"
         style="stop-color:#2FC2DF"
         id="stop44" /><stop
         offset="0.31446"
         style="stop-color:#2BC3D2"
         id="stop46" /><stop
         offset="0.67338"
         style="stop-color:#36C752"
         id="stop48" /></radialGradient><path
       class="st4"
       d="m 152.31433,148.8575 c -0.81059,1.04924 -3.3038,2.49771 -3.3038,5.66376 0,2.60432 1.70044,5.11723 4.72195,7.22598 14.38045,10.03624 41.48578,8.68372 41.55806,8.6834 11.19022,-0.0387 21.25658,-3.11595 30.27335,-8.3873 4.1021,-2.39879 7.8988,-5.24759 11.32176,-8.5002 11.74759,-11.16289 18.90974,-26.89409 19.10855,-44.37267 0.25494,-22.4157 -7.96001,-37.31779 -11.33673,-43.91641 C 223.46466,23.83595 177.71796,0 127.97791,0 57.86351,0 0.94677,56.34609 0.00589,126.20016 0.48121,89.65739 36.79964,60.14862 79.97179,60.14862 c 3.50045,0 23.4619,0.34137 42.00535,10.07347 16.33434,8.5727 24.89824,18.93159 30.85034,29.20773 6.18011,10.66985 7.27951,24.14606 7.27951,29.51893 0,5.37287 -2.70867,13.32803 -7.79266,19.90875 z"
       id="path51"
       inkscape:connector-curvature="0"
       style="fill:url(#SVGID_5_)" /><radialGradient
       id="SVGID_6_"
       cx="242.46877"
       cy="77.575531"
       r="97.337921"
       gradientTransform="matrix(0.28109,0.95968,-0.78353,0.22949,235.09682,-172.92052)"
       gradientUnits="userSpaceOnUse"><stop
         offset="0"
         style="stop-color:#66EB6E"
         id="stop53" /><stop
         offset="1"
         style="stop-color:#66EB6E;stop-opacity:0"
         id="stop55" /></radialGradient><path
       class="st5"
       d="m 152.31433,148.8575 c -0.81059,1.04924 -3.3038,2.49771 -3.3038,5.66376 0,2.60432 1.70044,5.11723 4.72195,7.22598 14.38045,10.03624 41.48578,8.68372 41.55806,8.6834 11.19022,-0.0387 21.25658,-3.11595 30.27335,-8.3873 4.1021,-2.39879 7.8988,-5.24759 11.32176,-8.5002 11.74759,-11.16289 18.90974,-26.89409 19.10855,-44.37267 0.25494,-22.4157 -7.96001,-37.31779 -11.33673,-43.91641 C 223.46466,23.83595 177.71796,0 127.97791,0 57.86351,0 0.94677,56.34609 0.00589,126.20016 0.48121,89.65739 36.79964,60.14862 79.97179,60.14862 c 3.50045,0 23.4619,0.34137 42.00535,10.07347 16.33434,8.5727 24.89824,18.93159 30.85034,29.20773 6.18011,10.66985 7.27951,24.14606 7.27951,29.51893 0,5.37287 -2.70867,13.32803 -7.79266,19.90875 z"
       id="path58"
       inkscape:connector-curvature="0"
       style="fill:url(#SVGID_6_)" /></g></svg>